<svg width="32" height="32" viewBox="0 0 32 32" fill="none" xmlns="http://www.w3.org/2000/svg">
<circle cx="16" cy="16" r="16" fill="#F1F1F1"/>
<g clip-path="url(#clip0_87_607)">
<path d="M17.3269 14.7637C16.8388 14.7637 16.4453 15.1646 16.4453 15.6619C16.4453 16.1592 16.8388 16.5579 17.3269 16.5579C17.8149 16.5579 18.2084 16.157 18.2084 15.6619C18.2084 15.1668 17.8128 14.7637 17.3269 14.7637Z" fill="#1BD66C"/>
<path d="M22.6091 14.7637C22.1232 14.7637 21.7275 15.1646 21.7275 15.6619C21.7275 16.1592 22.1232 16.5579 22.6091 16.5579C23.095 16.5579 23.4885 16.157 23.4885 15.6619C23.4885 15.1668 23.095 14.7637 22.6091 14.7637Z" fill="#1BD66C"/>
<path d="M9.47237 14.7637C8.98429 14.7637 8.59082 15.1646 8.59082 15.6619C8.59082 16.1592 8.98429 16.5579 9.47237 16.5579C9.96045 16.5579 10.3539 16.157 10.3539 15.6619C10.3539 15.1668 9.9583 14.7637 9.47237 14.7637Z" fill="#1BD66C"/>
<path d="M23.6607 7.19922H8.33676C6.3823 7.19922 4.7998 8.8204 4.7998 10.8184V19.4019C4.7998 21.3977 6.3823 23.0188 8.33676 23.0188H13.6175L15.4193 26.0049C15.4193 26.0049 15.4365 26.0421 15.4752 26.0903C15.5805 26.2743 15.7762 26.3992 15.9998 26.3992C16.2234 26.3992 16.4148 26.2743 16.5201 26.0947C16.5653 26.0421 16.5825 26.0049 16.5825 26.0049L18.3821 23.0188H23.6607C25.6152 23.0188 27.1998 21.3999 27.1998 19.4019V10.8184C27.1998 8.82259 25.6152 7.19922 23.6607 7.19922ZM9.77519 17.7916C8.94955 17.7916 8.62273 17.1892 8.62273 17.1892V17.6449H7.23805V11.8261H8.60768V14.0432C9.16456 13.4911 9.77519 13.4911 9.77519 13.4911C11.6351 13.4911 11.706 15.6184 11.706 15.6184C11.706 17.7193 9.77519 17.796 9.77519 17.796V17.7916ZM14.0948 13.8811V17.6449H12.7725V14.201C12.7725 13.0114 12.1489 13.0398 12.1489 13.0398V11.6903C14.1528 11.6903 14.0948 13.8811 14.0948 13.8811ZM19.6443 15.6644C19.6443 17.7895 17.3264 17.7916 17.3264 17.7916C14.9871 17.7916 15.0602 15.6644 15.0602 15.6644C15.0602 13.5109 17.3264 13.5109 17.3264 13.5109C19.7217 13.5109 19.6443 15.6644 19.6443 15.6644ZM24.7616 17.5923C24.7616 19.7962 22.7576 19.7743 22.7576 19.7743H22.2223V18.5365H22.5534C23.5231 18.5365 23.4263 17.5156 23.4263 17.5156V17.1892C22.9985 17.7522 22.2223 17.7215 22.2223 17.7215C20.3151 17.7215 20.3366 15.6469 20.3366 15.6469C20.3366 13.421 22.276 13.5065 22.276 13.5065C23.0329 13.5065 23.4285 14.0388 23.4285 14.0388V13.6423H24.7616V17.5901V17.5923Z" fill="#1BD66C"/>
</g>
<defs>
<clipPath id="clip0_87_607">
<rect width="22.4" height="19.2" fill="white" transform="translate(4.7998 7.19922)"/>
</clipPath>
</defs>
</svg>
