<svg width="18" height="17" viewBox="0 0 18 17" fill="none" xmlns="http://www.w3.org/2000/svg">
<g clip-path="url(#clip0_2597_1276)">
<path d="M12.7649 17.0002H11.3462V13.4295C11.3462 12.2746 10.4063 11.3359 9.25005 11.3359H3.51488C2.35862 11.3359 1.41872 12.2746 1.41872 13.4295V17.0002H0V13.4295C0 11.4918 1.57478 9.91895 3.51488 9.91895H9.25005C11.1901 9.91895 12.7649 11.4918 12.7649 13.4295V17.0002Z" fill="#00A2FF"/>
<path d="M6.38409 8.50177C4.03256 8.50177 2.12793 6.5995 2.12793 4.25089C2.12793 1.90227 4.03256 0 6.38409 0C8.73561 0 10.6402 1.90227 10.6402 4.25089C10.6402 6.59596 8.73561 8.49823 6.38409 8.50177ZM6.38409 1.41696C4.8164 1.41696 3.54665 2.68514 3.54665 4.25089C3.54665 5.81663 4.8164 7.08481 6.38409 7.08481C7.95177 7.08481 9.22153 5.81663 9.22153 4.25089C9.22153 2.68514 7.95177 1.41696 6.38409 1.41696Z" fill="#00A2FF"/>
<path d="M17.4679 5.65723L14.2651 8.85602L12.3428 6.93603" stroke="#00A2FF" stroke-miterlimit="10" stroke-linecap="round"/>
</g>
<defs>
<clipPath id="clip0_2597_1276">
<rect width="18" height="17" fill="white"/>
</clipPath>
</defs>
</svg>
