<svg width="32" height="32" viewBox="0 0 32 32" fill="none" xmlns="http://www.w3.org/2000/svg">
<circle cx="16" cy="16" r="16" fill="#F1F1F1"/>
<g clip-path="url(#clip0_87_603)">
<path d="M23.0212 9.05955C22.2589 8.9458 18.5917 8.80078 15.6782 8.80078C12.7647 8.80078 9.1003 8.9458 8.33805 9.05955C7.01118 9.27566 6.28845 9.87282 5.90733 11.4226C5.77747 11.9401 5.59961 14.7922 5.59961 15.8785V16.1202C5.59961 17.2093 5.77747 20.0586 5.90733 20.579C6.28845 22.1259 7.01118 22.7231 8.33805 22.9392C9.1003 23.0529 12.7704 23.1979 15.6867 23.1979H15.6726C18.5888 23.1979 22.2589 23.0529 23.0212 22.9392C24.348 22.7259 25.0679 22.1287 25.4547 20.579C25.5846 20.0586 25.7624 17.2065 25.7624 16.1202V15.8785C25.7624 14.7922 25.5846 11.9373 25.4547 11.4226C25.0708 9.86998 24.3509 9.27282 23.0212 9.05955ZM13.2616 18.6027V13.396L18.0948 15.9382L13.2616 18.6027Z" fill="#FF0000"/>
</g>
<defs>
<clipPath id="clip0_87_603">
<rect width="20.16" height="14.4" fill="white" transform="translate(5.59961 8.80078)"/>
</clipPath>
</defs>
</svg>
