<svg width="88" height="22" viewBox="0 0 88 22" fill="none" xmlns="http://www.w3.org/2000/svg">
<g clip-path="url(#clip0_3575_5126)">
<path d="M87.836 11.7567H85.1845V4.23159H83.374V1.58008H86.5125C87.2428 1.58008 87.836 2.17324 87.836 2.90362V11.7567Z" fill="white"/>
<path d="M71.1305 14.3157V2.9085C71.1305 2.17812 70.5373 1.58496 69.807 1.58496H64.7695V14.3202H67.421V4.23204H68.479V14.3157H71.1305Z" fill="white"/>
<path d="M82.6746 9.27344V1.58008H80.0231V4.59899H76.3446V7.2505H80.0231V9.00785H75.5656V1.58008H72.9141V9.27344C72.9141 10.4332 73.7507 11.6638 75.3044 11.6638H80.2843C81.444 11.6638 82.6746 10.8272 82.6746 9.27344Z" fill="white"/>
<path d="M33.0441 17.0511H29.9189V2.77547C29.9189 1.91229 30.6183 1.21289 31.4815 1.21289H35.2839V4.33804H33.0441V17.0555V17.0511Z" fill="white"/>
<path d="M20.8937 13.9171H25.1609V4.34683H20.8937V13.9171ZM26.7235 17.0422H19.3311C18.468 17.0422 17.7686 16.3428 17.7686 15.4796V2.78426C17.7686 1.92108 18.468 1.22168 19.3311 1.22168H26.7235C27.5867 1.22168 28.2861 1.92108 28.2861 2.78426V15.4796C28.2861 16.3428 27.5867 17.0422 26.7235 17.0422Z" fill="white"/>
<path d="M50.3036 1.04883H36.1475V4.17398H50.3036V1.04883Z" fill="white"/>
<path d="M39.2726 9.61873V8.14468H50.3036V5.01953H36.1563L36.1475 9.95072C36.1475 11.7656 37.5861 12.7439 38.9406 12.7439H50.3036V9.61873H39.2726Z" fill="white"/>
<path d="M16.7106 13.9219H0.0136719V17.047H16.7106V13.9219Z" fill="white"/>
<path d="M51.8039 13.9219H34.0312V17.047H51.8039V13.9219Z" fill="white"/>
<path d="M59.3553 7.25945C58.4081 7.25945 57.6378 8.02967 57.6378 8.97696C57.6378 9.92424 58.4081 10.6945 59.3553 10.6945C60.3026 10.6945 61.0728 9.92424 61.0728 8.97696C61.0728 8.02967 60.3026 7.25945 59.3553 7.25945ZM59.3553 13.3415C56.9473 13.3415 54.9863 11.3806 54.9863 8.97253C54.9863 6.56448 56.9473 4.60352 59.3553 4.60352C61.7634 4.60352 63.7199 6.56448 63.7199 8.97253C63.7199 11.3806 61.759 13.3415 59.3553 13.3415Z" fill="white"/>
<path d="M62.6093 4.22736H56.3899C55.6596 4.22736 55.0664 3.63421 55.0664 2.90382V0H57.7179V1.58028H63.4592V4.23179H62.6137L62.6093 4.22736Z" fill="white"/>
<path d="M16.7235 12.4696L10.097 2.36375C9.9509 2.16898 9.1497 1.19956 7.88813 1.22612C7.41891 1.2394 6.52475 1.42089 5.80764 2.47884L0 12.4696H3.77143L8.02092 4.79393L12.8016 12.4696H16.7235Z" fill="white"/>
<path d="M87.7434 19.6093V13.1377H85.0919V15.0146H80.1562V17.6661H85.0919V19.3482H79.4347V13.1377H76.7832V19.6093C76.7832 20.7691 77.6198 21.9997 79.1735 21.9997H85.353C86.5128 21.9997 87.7434 21.163 87.7434 19.6093Z" fill="white"/>
</g>
<defs>
<clipPath id="clip0_3575_5126">
<rect width="87.8362" height="22" fill="white"/>
</clipPath>
</defs>
</svg>
