<svg width="148" height="24" viewBox="0 0 148 24" fill="none" xmlns="http://www.w3.org/2000/svg">
<g id="ic_logo" clip-path="url(#clip0_87_656)">
<path id="Vector" d="M113.61 24H109.269V0H113.61V24ZM127.887 24H123.546V13.8847H114.826V9.65416H123.546V0H127.887V24ZM141.706 24H135.112V19.7694H141.706C142.187 19.7694 143.659 19.7694 143.659 16.9442C143.659 15.4364 142.397 14.2068 140.82 14.1189C140.76 14.1189 140.7 14.1189 140.639 14.1189H135.112V9.88106H140.647C140.7 9.88106 140.76 9.88106 140.812 9.88106C142.397 9.79323 143.651 8.56359 143.651 7.05581C143.651 5.54803 142.299 4.23056 140.632 4.23056H136.922H134.083V24H129.742V2.11528C129.742 0.94419 130.711 0 131.912 0H140.639C144.695 0 148 3.16926 148 7.05581C148 8.97347 147.196 10.7228 145.897 11.9963C147.204 13.2699 148.007 15.0192 148.007 16.9369C148.007 21.226 145.536 24 141.706 24Z" fill="#00A2FF"/>
<path id="Vector_2" d="M100.79 4.73575H80.3763V0.000165062H100.79V4.72844V4.73575ZM61.2548 24.0002H56.4031V17.8227H48.1192V13.0944H56.4031V9.05414C56.4031 6.66805 54.3077 4.72844 51.7317 4.72844C49.1556 4.72844 47.0602 6.66805 47.0602 9.05414V24.0002H42.2085V9.05414C42.1934 4.06238 46.4669 0.000165062 51.7242 0.000165062C56.9814 0.000165062 61.2473 4.06238 61.2473 9.05414V24.0002H61.2548ZM80.4589 24.0002H75.6072V20.2746C75.6072 18.9132 74.383 17.808 72.8734 17.808H71.3488C71.2737 17.808 71.1911 17.808 71.116 17.808H68.5474V13.0798H71.2812C73.6771 12.9993 75.6072 11.1548 75.6072 8.90044C75.6072 6.64609 73.5944 4.72844 71.116 4.72844H67.5035V24.0002H62.6518V2.3643C62.6443 1.06146 63.7258 0.000165062 65.0701 0.000165062H71.1085C76.2606 0.000165062 80.4514 3.99651 80.4514 8.90776C80.4514 11.2426 79.5051 13.3652 77.9655 14.9535C79.4901 16.271 80.4514 18.1667 80.4514 20.2746V24.0002H80.4589ZM40.7364 24.0002H35.8847V9.7934L32.5125 14.4338C32.0544 15.0633 31.3184 15.4293 30.5298 15.4293C29.7412 15.4293 29.0052 15.056 28.547 14.4338L25.1749 9.7934V24.0002H20.3232V2.3643C20.3232 1.33228 21.0066 0.424685 22.013 0.109955C23.0194 -0.204775 24.1159 0.153871 24.7318 0.995591L30.5298 8.97363L36.3278 0.995591C36.9362 0.153871 38.0402 -0.204775 39.0466 0.109955C40.053 0.424685 40.7364 1.33228 40.7364 2.3643V24.0002ZM93.0013 24.0002H88.1496V5.70922H93.0013V24.0075V24.0002ZM11.3858 24.0002H0.728509V19.2719H11.3783C12.8803 19.2719 14.097 18.174 14.097 16.8199C14.097 15.4659 12.8728 14.368 11.3783 14.368H7.578C3.40221 14.368 0 11.1475 0 7.1804C0 3.21334 3.40221 0.000165062 7.578 0.000165062H18.2277V4.72844H7.578C6.07592 4.72844 4.85923 5.82633 4.85923 7.1804C4.85923 8.53447 6.08343 9.63237 7.578 9.63237H11.3783C15.554 9.63237 18.9563 12.8529 18.9563 16.8126C18.9563 20.7724 15.5616 23.9928 11.3783 23.9928" fill="#00A2FF"/>
</g>
<defs>
<clipPath id="clip0_87_656">
<rect width="148" height="24" fill="white"/>
</clipPath>
</defs>
</svg>
